<?xml version="1.0" encoding="utf-8"?>
<!-- Generator: Adobe Illustrator 24.0.0, SVG Export Plug-In . SVG Version: 6.00 Build 0)  -->
<svg version="1.1" id="Capa_1" xmlns="http://www.w3.org/2000/svg" xmlns:xlink="http://www.w3.org/1999/xlink" x="0px" y="0px"
	 viewBox="0 0 1383.4 139.7" style="enable-background:new 0 0 1383.4 139.7;" xml:space="preserve">
<style type="text/css">
	.st0{fill:#3F0099;}
	.st1{fill:#7635DB;}
	.st2{fill:#AF8EED;}
	.st3{fill:#26035E;}
</style>
<g id="Grupo_124" transform="translate(1083.111 -710.215)">
	<g id="Grupo_114">
		<g id="Grupo_102">
			<path id="Trazado_29" class="st0" d="M-886.3,811.2c-32.2,0-68.9-14.1-104.5-27.9c-34-13.1-66-25.5-92.4-25.5v-13.7
				c28.9,0,62.1,12.8,97.3,26.4c38.7,14.9,78.8,30.4,110.3,26.3c28.4-3.7,58.7-17.3,88-30.4c32.9-14.8,64-28.7,89.3-26.8
				c22.2,1.7,41.3,9.4,59.8,16.9c20.6,8.3,40.1,16.2,63.6,16.2v13.7c-26.2,0-47.8-8.8-68.8-17.2c-18.3-7.4-35.6-14.4-55.7-15.9
				c-21.9-1.7-51.4,11.6-82.7,25.6c-30.2,13.5-61.4,27.5-91.8,31.5C-877.9,810.9-882.1,811.2-886.3,811.2z"/>
		</g>
		<g id="Grupo_103">
			<path id="Trazado_30" class="st1" d="M-480.8,781.4l3.2-59.5h-27.2c-16.3,0-23.6,29.6-39.8,38.2c-13.5,7.2-25.3,7.3-32.1,7.3
				s-7.4,12.6-7.4,12.6s0.5,12.6,7.4,12.6s18.7,0.2,32.1,7.3c16.2,8.6,23.6,38.2,39.8,38.2h27.2l-3.5-56.8L-480.8,781.4z"/>
		</g>
		<g id="Grupo_104">
			<path id="Trazado_31" class="st0" d="M-445.8,780.1c0-20.4-2.9-38.7-7.5-51.5v-18.4H-469c-12.8,0-23.1,31.3-23.1,69.8
				s10.4,69.8,23.1,69.8h15.6v-18.4C-448.7,818.8-445.8,800.4-445.8,780.1z"/>
		</g>
		<g id="Grupo_105">
			<ellipse id="Elipse_17" class="st2" cx="-454.4" cy="780.1" rx="23.1" ry="69.8"/>
		</g>
		<g id="Grupo_109">
			<g id="Grupo_106">
				<path id="Trazado_32" class="st3" d="M-451.4,754.1c0,5-1.3,9.1-3,9.1s-3-4.1-3-9.1s1.3-9.1,3-9.1S-451.4,749.1-451.4,754.1z"/>
			</g>
			<g id="Grupo_107">
				<rect id="Rectángulo_56" x="-454.4" y="745.1" class="st3" width="49.5" height="18.1"/>
			</g>
			<g id="Grupo_108">
				<circle id="Elipse_18" class="st3" cx="-403.4" cy="754.1" r="9.1"/>
			</g>
		</g>
		<g id="Grupo_113">
			<g id="Grupo_110">
				<path id="Trazado_33" class="st3" d="M-451.4,806c0,5-1.3,9.1-3,9.1s-3-4.1-3-9.1s1.3-9.1,3-9.1S-451.4,801-451.4,806z"/>
			</g>
			<g id="Grupo_111">
				<rect id="Rectángulo_57" x="-454.4" y="796.9" class="st3" width="49.5" height="18.1"/>
			</g>
			<g id="Grupo_112">
				<circle id="Elipse_19" class="st3" cx="-403.4" cy="806" r="9.1"/>
			</g>
		</g>
	</g>
	<g id="Grupo_123">
		<g id="Grupo_115">
			<path id="Trazado_34" class="st0" d="M-82.8,813.1c-22.2,0-44.3-6.8-65.6-13.4c-21-6.5-42.6-13.2-64-13.2v-13.7
				c23.4,0,46.1,7,68,13.8c23.7,7.3,46.1,14.3,68.4,12.6c16.5-1.3,38.9-8,62.5-15.1c40.4-12.1,86.1-25.8,125.7-20.7
				c12.1,1.6,23.9,3.8,35.3,6c46.8,8.9,93.7,20.9,152.7-31.1l0,18.1C242,801.4,192.7,792,145,782.9c-11.2-2.1-22.8-4.4-34.5-5.9
				c-36.7-4.8-81,8.5-120,20.2c-24.4,7.3-47.4,14.2-65.4,15.6C-77.6,813-80.2,813.1-82.8,813.1z"/>
		</g>
		<g id="Grupo_116">
			<path id="Trazado_35" class="st1" d="M-210.3,767.5c-6.9,0-18.7-0.2-32.1-7.3c-16.2-8.6-23.6-38.2-39.8-38.2h-27.2l3.7,56.6
				l-0.4,0l-3.2,59.6h27.2c16.3,0,23.6-29.6,39.8-38.2c13.5-7.2,25.3-7.3,32.1-7.3s7.4-12.6,7.4-12.6S-203.5,767.5-210.3,767.5z"/>
		</g>
		<g id="Grupo_117">
			<path id="Trazado_36" class="st0" d="M-341.2,780.1c0-20.4,2.9-38.7,7.5-51.5v-18.4h15.6c12.8,0,23.1,31.3,23.1,69.8
				s-10.4,69.8-23.1,69.8h-15.6v-18.4C-338.3,818.8-341.2,800.4-341.2,780.1z"/>
		</g>
		<g id="Grupo_118">
			<ellipse id="Elipse_20" class="st1" cx="-332.6" cy="780.1" rx="23.1" ry="69.8"/>
		</g>
		<g id="Grupo_120">
			<g id="Grupo_119">
				<path id="Trazado_37" class="st3" d="M-335.6,754.1c0,5,1.3,9.1,3,9.1s3-4.1,3-9.1s-1.3-9.1-3-9.1S-335.6,749.1-335.6,754.1z"/>
			</g>
		</g>
		<g id="Grupo_122">
			<g id="Grupo_121">
				<path id="Trazado_38" class="st3" d="M-335.6,806c0,5,1.3,9.1,3,9.1s3-4.1,3-9.1s-1.3-9.1-3-9.1S-335.6,801-335.6,806z"/>
			</g>
		</g>
	</g>
</g>
</svg>
